# Tiled2Unity generated file. Do not modify by hand.
# Wavefront file for 'mapa1.1_mesh_0089.obj'

# Vertices (Count = 96)
v -384 -2176 0
v -416 -2176 0
v -416 -2016 0
v -384 -2016 0
v -576 -2176 0
v -608 -2176 0
v -608 -2016 0
v -576 -2016 0
v -736 -2176 0
v -768 -2176 0
v -768 -2016 0
v -736 -2016 0
v -1440 -2176 0
v -1472 -2176 0
v -1472 -2016 0
v -1440 -2016 0
v -736 -2208 0
v -768 -2208 0
v -768 -2048 0
v -736 -2048 0
v -1312 -2208 0
v -1344 -2208 0
v -1344 -2048 0
v -1312 -2048 0
v -576 -2240 0
v -608 -2240 0
v -608 -2080 0
v -576 -2080 0
v -1472 -2240 0
v -1504 -2240 0
v -1504 -2080 0
v -1472 -2080 0
v -544 -2272 0
v -576 -2272 0
v -576 -2112 0
v -544 -2112 0
v -1440 -2304 0
v -1472 -2304 0
v -1472 -2144 0
v -1440 -2144 0
v -384 -2560 0
v -416 -2560 0
v -416 -2400 0
v -384 -2400 0
v -736 -2624 0
v -768 -2624 0
v -768 -2464 0
v -736 -2464 0
v -704 -2752 0
v -736 -2752 0
v -736 -2592 0
v -704 -2592 0
v -736 -2752 0
v -768 -2752 0
v -768 -2592 0
v -736 -2592 0
v -640 -3264 0
v -672 -3264 0
v -672 -3104 0
v -640 -3104 0
v -1344 -3264 0
v -1376 -3264 0
v -1376 -3104 0
v -1344 -3104 0
v -416 -3488 0
v -448 -3488 0
v -448 -3328 0
v -416 -3328 0
v -448 -3488 0
v -480 -3488 0
v -480 -3328 0
v -448 -3328 0
v -1600 -3520 0
v -1632 -3520 0
v -1632 -3360 0
v -1600 -3360 0
v -672 -3744 0
v -704 -3744 0
v -704 -3584 0
v -672 -3584 0
v -768 -3744 0
v -800 -3744 0
v -800 -3584 0
v -768 -3584 0
v -1056 -3744 0
v -1088 -3744 0
v -1088 -3584 0
v -1056 -3584 0
v -544 -3808 0
v -576 -3808 0
v -576 -3648 0
v -544 -3648 0
v -1504 -3808 0
v -1536 -3808 0
v -1536 -3648 0
v -1504 -3648 0

# Texture cooridinates (Count = 4)
vt 0 0
vt 1 0
vt 1 1
vt 0 1

# Normal
vn 0 0 -1

# Mesh description
g mapa1.1_mesh_0089

# Faces
f 1/1/1 2/2/1 3/3/1 4/4/1
f 5/1/1 6/2/1 7/3/1 8/4/1
f 9/1/1 10/2/1 11/3/1 12/4/1
f 13/1/1 14/2/1 15/3/1 16/4/1
f 17/1/1 18/2/1 19/3/1 20/4/1
f 21/1/1 22/2/1 23/3/1 24/4/1
f 25/1/1 26/2/1 27/3/1 28/4/1
f 29/1/1 30/2/1 31/3/1 32/4/1
f 33/1/1 34/2/1 35/3/1 36/4/1
f 37/1/1 38/2/1 39/3/1 40/4/1
f 41/1/1 42/2/1 43/3/1 44/4/1
f 45/1/1 46/2/1 47/3/1 48/4/1
f 49/1/1 50/2/1 51/3/1 52/4/1
f 53/1/1 54/2/1 55/3/1 56/4/1
f 57/1/1 58/2/1 59/3/1 60/4/1
f 61/1/1 62/2/1 63/3/1 64/4/1
f 65/1/1 66/2/1 67/3/1 68/4/1
f 69/1/1 70/2/1 71/3/1 72/4/1
f 73/1/1 74/2/1 75/3/1 76/4/1
f 77/1/1 78/2/1 79/3/1 80/4/1
f 81/1/1 82/2/1 83/3/1 84/4/1
f 85/1/1 86/2/1 87/3/1 88/4/1
f 89/1/1 90/2/1 91/3/1 92/4/1
f 93/1/1 94/2/1 95/3/1 96/4/1

