# Tiled2Unity generated file. Do not modify by hand.
# Wavefront file for 'mapa1.1_mesh_0047.obj'

# Vertices (Count = 200)
v -640 -1952 0
v -672 -1952 0
v -672 -1920 0
v -640 -1920 0
v -1376 -1952 0
v -1408 -1952 0
v -1408 -1920 0
v -1376 -1920 0
v -416 -2048 0
v -448 -2048 0
v -448 -2016 0
v -416 -2016 0
v -576 -2048 0
v -608 -2048 0
v -608 -2016 0
v -576 -2016 0
v -736 -2048 0
v -768 -2048 0
v -768 -2016 0
v -736 -2016 0
v -928 -2048 0
v -960 -2048 0
v -960 -2016 0
v -928 -2016 0
v -1280 -2048 0
v -1312 -2048 0
v -1312 -2016 0
v -1280 -2016 0
v -384 -2208 0
v -416 -2208 0
v -416 -2176 0
v -384 -2176 0
v -1280 -2208 0
v -1312 -2208 0
v -1312 -2176 0
v -1280 -2176 0
v -1152 -2304 0
v -1184 -2304 0
v -1184 -2272 0
v -1152 -2272 0
v -1472 -2304 0
v -1504 -2304 0
v -1504 -2272 0
v -1472 -2272 0
v -96 -2336 0
v -128 -2336 0
v -128 -2304 0
v -96 -2304 0
v -704 -2336 0
v -736 -2336 0
v -736 -2304 0
v -704 -2304 0
v -1920 -2336 0
v -1952 -2336 0
v -1952 -2304 0
v -1920 -2304 0
v -256 -2368 0
v -288 -2368 0
v -288 -2336 0
v -256 -2336 0
v -1760 -2368 0
v -1792 -2368 0
v -1792 -2336 0
v -1760 -2336 0
v -416 -2464 0
v -448 -2464 0
v -448 -2432 0
v -416 -2432 0
v -1600 -2464 0
v -1632 -2464 0
v -1632 -2432 0
v -1600 -2432 0
v -736 -2496 0
v -768 -2496 0
v -768 -2464 0
v -736 -2464 0
v -1600 -2496 0
v -1632 -2496 0
v -1632 -2464 0
v -1600 -2464 0
v -352 -2560 0
v -384 -2560 0
v -384 -2528 0
v -352 -2528 0
v -384 -2560 0
v -416 -2560 0
v -416 -2528 0
v -384 -2528 0
v -1632 -2560 0
v -1664 -2560 0
v -1664 -2528 0
v -1632 -2528 0
v -1664 -2560 0
v -1696 -2560 0
v -1696 -2528 0
v -1664 -2528 0
v -416 -2656 0
v -448 -2656 0
v -448 -2624 0
v -416 -2624 0
v -1600 -2656 0
v -1632 -2656 0
v -1632 -2624 0
v -1600 -2624 0
v -1696 -2656 0
v -1728 -2656 0
v -1728 -2624 0
v -1696 -2624 0
v -224 -2688 0
v -256 -2688 0
v -256 -2656 0
v -224 -2656 0
v -416 -2688 0
v -448 -2688 0
v -448 -2656 0
v -416 -2656 0
v -1600 -2688 0
v -1632 -2688 0
v -1632 -2656 0
v -1600 -2656 0
v -1312 -2752 0
v -1344 -2752 0
v -1344 -2720 0
v -1312 -2720 0
v -960 -3008 0
v -992 -3008 0
v -992 -2976 0
v -960 -2976 0
v -1056 -3008 0
v -1088 -3008 0
v -1088 -2976 0
v -1056 -2976 0
v -480 -3104 0
v -512 -3104 0
v -512 -3072 0
v -480 -3072 0
v -672 -3104 0
v -704 -3104 0
v -704 -3072 0
v -672 -3072 0
v -1344 -3104 0
v -1376 -3104 0
v -1376 -3072 0
v -1344 -3072 0
v -1536 -3136 0
v -1568 -3136 0
v -1568 -3104 0
v -1536 -3104 0
v -288 -3232 0
v -320 -3232 0
v -320 -3200 0
v -288 -3200 0
v -320 -3264 0
v -352 -3264 0
v -352 -3232 0
v -320 -3232 0
v -640 -3264 0
v -672 -3264 0
v -672 -3232 0
v -640 -3232 0
v -1344 -3264 0
v -1376 -3264 0
v -1376 -3232 0
v -1344 -3232 0
v -1728 -3264 0
v -1760 -3264 0
v -1760 -3232 0
v -1728 -3232 0
v -416 -3360 0
v -448 -3360 0
v -448 -3328 0
v -416 -3328 0
v -800 -3360 0
v -832 -3360 0
v -832 -3328 0
v -800 -3328 0
v -1600 -3360 0
v -1632 -3360 0
v -1632 -3328 0
v -1600 -3328 0
v -1216 -3392 0
v -1248 -3392 0
v -1248 -3360 0
v -1216 -3360 0
v -992 -3424 0
v -1024 -3424 0
v -1024 -3392 0
v -992 -3392 0
v -1024 -3424 0
v -1056 -3424 0
v -1056 -3392 0
v -1024 -3392 0
v -448 -3520 0
v -480 -3520 0
v -480 -3488 0
v -448 -3488 0
v -1600 -3520 0
v -1632 -3520 0
v -1632 -3488 0
v -1600 -3488 0

# Texture cooridinates (Count = 4)
vt 1 1
vt 0 1
vt 0 0
vt 1 0

# Normal
vn 0 0 -1

# Mesh description
g mapa1.1_mesh_0047

# Faces
f 1/1/1 2/2/1 3/3/1 4/4/1
f 5/2/1 6/1/1 7/4/1 8/3/1
f 9/4/1 10/1/1 11/2/1 12/3/1
f 13/4/1 14/1/1 15/2/1 16/3/1
f 17/4/1 18/1/1 19/2/1 20/3/1
f 21/3/1 22/4/1 23/1/1 24/2/1
f 25/3/1 26/4/1 27/1/1 28/2/1
f 29/2/1 30/3/1 31/4/1 32/1/1
f 33/2/1 34/3/1 35/4/1 36/1/1
f 37/4/1 38/3/1 39/2/1 40/1/1
f 41/3/1 42/2/1 43/1/1 44/4/1
f 45/1/1 46/4/1 47/3/1 48/2/1
f 49/1/1 50/2/1 51/3/1 52/4/1
f 53/4/1 54/1/1 55/2/1 56/3/1
f 57/3/1 58/2/1 59/1/1 60/4/1
f 61/2/1 62/3/1 63/4/1 64/1/1
f 65/3/1 66/4/1 67/1/1 68/2/1
f 69/4/1 70/1/1 71/2/1 72/3/1
f 73/4/1 74/1/1 75/2/1 76/3/1
f 77/1/1 78/2/1 79/3/1 80/4/1
f 81/2/1 82/3/1 83/4/1 84/1/1
f 85/3/1 86/2/1 87/1/1 88/4/1
f 89/2/1 90/3/1 91/4/1 92/1/1
f 93/3/1 94/2/1 95/1/1 96/4/1
f 97/3/1 98/4/1 99/1/1 100/2/1
f 101/4/1 102/3/1 103/2/1 104/1/1
f 105/3/1 106/4/1 107/1/1 108/2/1
f 109/2/1 110/1/1 111/4/1 112/3/1
f 113/2/1 114/3/1 115/4/1 116/1/1
f 117/3/1 118/2/1 119/1/1 120/4/1
f 121/3/1 122/2/1 123/1/1 124/4/1
f 125/1/1 126/2/1 127/3/1 128/4/1
f 129/2/1 130/1/1 131/4/1 132/3/1
f 133/4/1 134/1/1 135/2/1 136/3/1
f 137/4/1 138/3/1 139/2/1 140/1/1
f 141/1/1 142/4/1 143/3/1 144/2/1
f 145/2/1 146/1/1 147/4/1 148/3/1
f 149/3/1 150/4/1 151/1/1 152/2/1
f 153/1/1 154/2/1 155/3/1 156/4/1
f 157/2/1 158/1/1 159/4/1 160/3/1
f 161/2/1 162/1/1 163/4/1 164/3/1
f 165/1/1 166/2/1 167/3/1 168/4/1
f 169/3/1 170/4/1 171/1/1 172/2/1
f 173/4/1 174/1/1 175/2/1 176/3/1
f 177/4/1 178/1/1 179/2/1 180/3/1
f 181/2/1 182/1/1 183/4/1 184/3/1
f 185/2/1 186/3/1 187/4/1 188/1/1
f 189/3/1 190/2/1 191/1/1 192/4/1
f 193/1/1 194/2/1 195/3/1 196/4/1
f 197/1/1 198/2/1 199/3/1 200/4/1

