# Tiled2Unity generated file. Do not modify by hand.
# Wavefront file for 'mapa1.1_mesh_0043.obj'

# Vertices (Count = 144)
v -640 -1920 0
v -672 -1920 0
v -672 -1888 0
v -640 -1888 0
v -1632 -1920 0
v -1664 -1920 0
v -1664 -1888 0
v -1632 -1888 0
v -384 -1952 0
v -416 -1952 0
v -416 -1920 0
v -384 -1920 0
v -384 -2048 0
v -416 -2048 0
v -416 -2016 0
v -384 -2016 0
v -1440 -2048 0
v -1472 -2048 0
v -1472 -2016 0
v -1440 -2016 0
v -1632 -2048 0
v -1664 -2048 0
v -1664 -2016 0
v -1632 -2016 0
v -928 -2080 0
v -960 -2080 0
v -960 -2048 0
v -928 -2048 0
v -416 -2208 0
v -448 -2208 0
v -448 -2176 0
v -416 -2176 0
v -704 -2208 0
v -736 -2208 0
v -736 -2176 0
v -704 -2176 0
v -1600 -2208 0
v -1632 -2208 0
v -1632 -2176 0
v -1600 -2176 0
v -544 -2304 0
v -576 -2304 0
v -576 -2272 0
v -544 -2272 0
v -864 -2304 0
v -896 -2304 0
v -896 -2272 0
v -864 -2272 0
v -1120 -2304 0
v -1152 -2304 0
v -1152 -2272 0
v -1120 -2272 0
v -1312 -2304 0
v -1344 -2304 0
v -1344 -2272 0
v -1312 -2272 0
v -672 -2336 0
v -704 -2336 0
v -704 -2304 0
v -672 -2304 0
v -864 -2336 0
v -896 -2336 0
v -896 -2304 0
v -864 -2304 0
v -1312 -2336 0
v -1344 -2336 0
v -1344 -2304 0
v -1312 -2304 0
v -384 -2400 0
v -416 -2400 0
v -416 -2368 0
v -384 -2368 0
v -1632 -2400 0
v -1664 -2400 0
v -1664 -2368 0
v -1632 -2368 0
v -416 -2496 0
v -448 -2496 0
v -448 -2464 0
v -416 -2464 0
v -1280 -2496 0
v -1312 -2496 0
v -1312 -2464 0
v -1280 -2464 0
v -1504 -2496 0
v -1536 -2496 0
v -1536 -2464 0
v -1504 -2464 0
v -224 -2656 0
v -256 -2656 0
v -256 -2624 0
v -224 -2624 0
v -512 -2656 0
v -544 -2656 0
v -544 -2624 0
v -512 -2624 0
v -1504 -2656 0
v -1536 -2656 0
v -1536 -2624 0
v -1504 -2624 0
v -1696 -2688 0
v -1728 -2688 0
v -1728 -2656 0
v -1696 -2656 0
v -704 -2752 0
v -736 -2752 0
v -736 -2720 0
v -704 -2720 0
v -960 -2976 0
v -992 -2976 0
v -992 -2944 0
v -960 -2944 0
v -1312 -2976 0
v -1344 -2976 0
v -1344 -2944 0
v -1312 -2944 0
v -704 -3008 0
v -736 -3008 0
v -736 -2976 0
v -704 -2976 0
v -320 -3232 0
v -352 -3232 0
v -352 -3200 0
v -320 -3200 0
v -1696 -3232 0
v -1728 -3232 0
v -1728 -3200 0
v -1696 -3200 0
v -1728 -3232 0
v -1760 -3232 0
v -1760 -3200 0
v -1728 -3200 0
v -288 -3264 0
v -320 -3264 0
v -320 -3232 0
v -288 -3232 0
v -1024 -3264 0
v -1056 -3264 0
v -1056 -3232 0
v -1024 -3232 0
v -1696 -3264 0
v -1728 -3264 0
v -1728 -3232 0
v -1696 -3232 0

# Texture cooridinates (Count = 4)
vt 1 0
vt 0 0
vt 0 1
vt 1 1

# Normal
vn 0 0 -1

# Mesh description
g mapa1.1_mesh_0043

# Faces
f 1/1/1 2/2/1 3/3/1 4/4/1
f 5/1/1 6/4/1 7/3/1 8/2/1
f 9/3/1 10/2/1 11/1/1 12/4/1
f 13/2/1 14/1/1 15/4/1 16/3/1
f 17/2/1 18/1/1 19/4/1 20/3/1
f 21/1/1 22/4/1 23/3/1 24/2/1
f 25/3/1 26/2/1 27/1/1 28/4/1
f 29/4/1 30/3/1 31/2/1 32/1/1
f 33/3/1 34/2/1 35/1/1 36/4/1
f 37/3/1 38/2/1 39/1/1 40/4/1
f 41/3/1 42/4/1 43/1/1 44/2/1
f 45/2/1 46/1/1 47/4/1 48/3/1
f 49/4/1 50/1/1 51/2/1 52/3/1
f 53/4/1 54/1/1 55/2/1 56/3/1
f 57/3/1 58/2/1 59/1/1 60/4/1
f 61/3/1 62/2/1 63/1/1 64/4/1
f 65/3/1 66/4/1 67/1/1 68/2/1
f 69/1/1 70/4/1 71/3/1 72/2/1
f 73/4/1 74/1/1 75/2/1 76/3/1
f 77/3/1 78/4/1 79/1/1 80/2/1
f 81/2/1 82/1/1 83/4/1 84/3/1
f 85/3/1 86/4/1 87/1/1 88/2/1
f 89/2/1 90/1/1 91/4/1 92/3/1
f 93/1/1 94/2/1 95/3/1 96/4/1
f 97/2/1 98/1/1 99/4/1 100/3/1
f 101/3/1 102/4/1 103/1/1 104/2/1
f 105/3/1 106/4/1 107/1/1 108/2/1
f 109/1/1 110/2/1 111/3/1 112/4/1
f 113/1/1 114/4/1 115/3/1 116/2/1
f 117/3/1 118/2/1 119/1/1 120/4/1
f 121/1/1 122/4/1 123/3/1 124/2/1
f 125/2/1 126/1/1 127/4/1 128/3/1
f 129/1/1 130/4/1 131/3/1 132/2/1
f 133/3/1 134/2/1 135/1/1 136/4/1
f 137/1/1 138/4/1 139/3/1 140/2/1
f 141/3/1 142/2/1 143/1/1 144/4/1

