# Tiled2Unity generated file. Do not modify by hand.
# Wavefront file for 'mapa1.1_mesh_0064.obj'

# Vertices (Count = 20)
v -992 -2432 0
v -1024 -2432 0
v -1024 -2400 0
v -992 -2400 0
v -1024 -2432 0
v -1056 -2432 0
v -1056 -2400 0
v -1024 -2400 0
v -992 -2528 0
v -1024 -2528 0
v -1024 -2496 0
v -992 -2496 0
v -1024 -2656 0
v -1056 -2656 0
v -1056 -2624 0
v -1024 -2624 0
v -1472 -3392 0
v -1504 -3392 0
v -1504 -3360 0
v -1472 -3360 0

# Texture cooridinates (Count = 4)
vt 0 1
vt 0 0
vt 1 0
vt 1 1

# Normal
vn 0 0 -1

# Mesh description
g mapa1.1_mesh_0064

# Faces
f 1/1/1 2/2/1 3/3/1 4/4/1
f 5/3/1 6/4/1 7/1/1 8/2/1
f 9/1/1 10/2/1 11/3/1 12/4/1
f 13/3/1 14/4/1 15/1/1 16/2/1
f 17/1/1 18/4/1 19/3/1 20/2/1

