# Tiled2Unity generated file. Do not modify by hand.
# Wavefront file for 'mapa1.1_mesh_0087.obj'

# Vertices (Count = 52)
v -1376 -1920 0
v -1408 -1920 0
v -1408 -1888 0
v -1376 -1888 0
v -928 -2048 0
v -960 -2048 0
v -960 -2016 0
v -928 -2016 0
v -768 -2304 0
v -800 -2304 0
v -800 -2272 0
v -768 -2272 0
v -96 -2336 0
v -128 -2336 0
v -128 -2304 0
v -96 -2304 0
v -448 -2464 0
v -480 -2464 0
v -480 -2432 0
v -448 -2432 0
v -224 -2656 0
v -256 -2656 0
v -256 -2624 0
v -224 -2624 0
v -288 -2656 0
v -320 -2656 0
v -320 -2624 0
v -288 -2624 0
v -448 -2656 0
v -480 -2656 0
v -480 -2624 0
v -448 -2624 0
v -544 -2912 0
v -576 -2912 0
v -576 -2880 0
v -544 -2880 0
v -1568 -2976 0
v -1600 -2976 0
v -1600 -2944 0
v -1568 -2944 0
v -480 -3104 0
v -512 -3104 0
v -512 -3072 0
v -480 -3072 0
v -1184 -3104 0
v -1216 -3104 0
v -1216 -3072 0
v -1184 -3072 0
v -1440 -3104 0
v -1472 -3104 0
v -1472 -3072 0
v -1440 -3072 0

# Texture cooridinates (Count = 4)
vt 0 0
vt 1 0
vt 1 1
vt 0 1

# Normal
vn 0 0 -1

# Mesh description
g mapa1.1_mesh_0087

# Faces
f 1/1/1 2/2/1 3/3/1 4/4/1
f 5/1/1 6/2/1 7/3/1 8/4/1
f 9/1/1 10/2/1 11/3/1 12/4/1
f 13/1/1 14/2/1 15/3/1 16/4/1
f 17/1/1 18/2/1 19/3/1 20/4/1
f 21/1/1 22/2/1 23/3/1 24/4/1
f 25/1/1 26/2/1 27/3/1 28/4/1
f 29/1/1 30/2/1 31/3/1 32/4/1
f 33/1/1 34/2/1 35/3/1 36/4/1
f 37/1/1 38/2/1 39/3/1 40/4/1
f 41/1/1 42/2/1 43/3/1 44/4/1
f 45/1/1 46/2/1 47/3/1 48/4/1
f 49/1/1 50/2/1 51/3/1 52/4/1

