# Tiled2Unity generated file. Do not modify by hand.
# Wavefront file for 'mapa1.1_mesh_0044.obj'

# Vertices (Count = 136)
v -1376 -1920 0
v -1408 -1920 0
v -1408 -1888 0
v -1376 -1888 0
v -544 -2048 0
v -576 -2048 0
v -576 -2016 0
v -544 -2016 0
v -1088 -2080 0
v -1120 -2080 0
v -1120 -2048 0
v -1088 -2048 0
v -736 -2208 0
v -768 -2208 0
v -768 -2176 0
v -736 -2176 0
v -1440 -2304 0
v -1472 -2304 0
v -1472 -2272 0
v -1440 -2272 0
v -256 -2336 0
v -288 -2336 0
v -288 -2304 0
v -256 -2304 0
v -1760 -2336 0
v -1792 -2336 0
v -1792 -2304 0
v -1760 -2304 0
v -96 -2368 0
v -128 -2368 0
v -128 -2336 0
v -96 -2336 0
v -1920 -2368 0
v -1952 -2368 0
v -1952 -2336 0
v -1920 -2336 0
v -512 -2464 0
v -544 -2464 0
v -544 -2432 0
v -512 -2432 0
v -512 -2496 0
v -544 -2496 0
v -544 -2464 0
v -512 -2464 0
v -704 -2496 0
v -736 -2496 0
v -736 -2464 0
v -704 -2464 0
v -320 -2656 0
v -352 -2656 0
v -352 -2624 0
v -320 -2624 0
v -1792 -2656 0
v -1824 -2656 0
v -1824 -2624 0
v -1792 -2624 0
v -320 -2688 0
v -352 -2688 0
v -352 -2656 0
v -320 -2656 0
v -1792 -2688 0
v -1824 -2688 0
v -1824 -2656 0
v -1792 -2656 0
v -1280 -2752 0
v -1312 -2752 0
v -1312 -2720 0
v -1280 -2720 0
v -1056 -2976 0
v -1088 -2976 0
v -1088 -2944 0
v -1056 -2944 0
v -640 -3104 0
v -672 -3104 0
v -672 -3072 0
v -640 -3072 0
v -1376 -3104 0
v -1408 -3104 0
v -1408 -3072 0
v -1376 -3072 0
v -1568 -3104 0
v -1600 -3104 0
v -1600 -3072 0
v -1568 -3072 0
v -448 -3136 0
v -480 -3136 0
v -480 -3104 0
v -448 -3104 0
v -480 -3136 0
v -512 -3136 0
v -512 -3104 0
v -480 -3104 0
v -1568 -3136 0
v -1600 -3136 0
v -1600 -3104 0
v -1568 -3104 0
v -672 -3264 0
v -704 -3264 0
v -704 -3232 0
v -672 -3232 0
v -1376 -3264 0
v -1408 -3264 0
v -1408 -3232 0
v -1376 -3232 0
v -448 -3360 0
v -480 -3360 0
v -480 -3328 0
v -448 -3328 0
v -1248 -3360 0
v -1280 -3360 0
v -1280 -3328 0
v -1248 -3328 0
v -1568 -3360 0
v -1600 -3360 0
v -1600 -3328 0
v -1568 -3328 0
v -768 -3392 0
v -800 -3392 0
v -800 -3360 0
v -768 -3360 0
v -800 -3392 0
v -832 -3392 0
v -832 -3360 0
v -800 -3360 0
v -1248 -3392 0
v -1280 -3392 0
v -1280 -3360 0
v -1248 -3360 0
v -416 -3520 0
v -448 -3520 0
v -448 -3488 0
v -416 -3488 0
v -1568 -3520 0
v -1600 -3520 0
v -1600 -3488 0
v -1568 -3488 0

# Texture cooridinates (Count = 4)
vt 0 0
vt 1 0
vt 1 1
vt 0 1

# Normal
vn 0 0 -1

# Mesh description
g mapa1.1_mesh_0044

# Faces
f 1/1/1 2/2/1 3/3/1 4/4/1
f 5/3/1 6/2/1 7/1/1 8/4/1
f 9/3/1 10/4/1 11/1/1 12/2/1
f 13/3/1 14/4/1 15/1/1 16/2/1
f 17/4/1 18/1/1 19/2/1 20/3/1
f 21/2/1 22/1/1 23/4/1 24/3/1
f 25/1/1 26/2/1 27/3/1 28/4/1
f 29/4/1 30/3/1 31/2/1 32/1/1
f 33/3/1 34/4/1 35/1/1 36/2/1
f 37/2/1 38/3/1 39/4/1 40/1/1
f 41/1/1 42/4/1 43/3/1 44/2/1
f 45/3/1 46/2/1 47/1/1 48/4/1
f 49/2/1 50/3/1 51/4/1 52/1/1
f 53/2/1 54/3/1 55/4/1 56/1/1
f 57/1/1 58/4/1 59/3/1 60/2/1
f 61/1/1 62/4/1 63/3/1 64/2/1
f 65/4/1 66/1/1 67/2/1 68/3/1
f 69/1/1 70/2/1 71/3/1 72/4/1
f 73/3/1 74/2/1 75/1/1 76/4/1
f 77/2/1 78/1/1 79/4/1 80/3/1
f 81/2/1 82/3/1 83/4/1 84/1/1
f 85/4/1 86/1/1 87/2/1 88/3/1
f 89/3/1 90/4/1 91/1/1 92/2/1
f 93/3/1 94/4/1 95/1/1 96/2/1
f 97/1/1 98/4/1 99/3/1 100/2/1
f 101/1/1 102/4/1 103/3/1 104/2/1
f 105/2/1 106/3/1 107/4/1 108/1/1
f 109/2/1 110/1/1 111/4/1 112/3/1
f 113/1/1 114/2/1 115/3/1 116/4/1
f 117/4/1 118/1/1 119/2/1 120/3/1
f 121/3/1 122/4/1 123/1/1 124/2/1
f 125/1/1 126/4/1 127/3/1 128/2/1
f 129/4/1 130/1/1 131/2/1 132/3/1
f 133/4/1 134/1/1 135/2/1 136/3/1

