# Tiled2Unity generated file. Do not modify by hand.
# Wavefront file for 'mapa1.1_mesh_0013.obj'

# Vertices (Count = 16)
v -1120 -2784 0
v -1152 -2784 0
v -1152 -2752 0
v -1120 -2752 0
v -576 -3072 0
v -608 -3072 0
v -608 -3040 0
v -576 -3040 0
v -1408 -3328 0
v -1440 -3328 0
v -1440 -3296 0
v -1408 -3296 0
v -1152 -3584 0
v -1184 -3584 0
v -1184 -3552 0
v -1152 -3552 0

# Texture cooridinates (Count = 4)
vt 0 0
vt 1 0
vt 1 1
vt 0 1

# Normal
vn 0 0 -1

# Mesh description
g mapa1.1_mesh_0013

# Faces
f 1/1/1 2/2/1 3/3/1 4/4/1
f 5/1/1 6/2/1 7/3/1 8/4/1
f 9/1/1 10/2/1 11/3/1 12/4/1
f 13/1/1 14/2/1 15/3/1 16/4/1

