# Tiled2Unity generated file. Do not modify by hand.
# Wavefront file for 'mapa1.1_mesh_0006.obj'

# Vertices (Count = 12)
v 0 -3744 0
v -2048 -3744 0
v -2048 -3616 0
v 0 -3616 0
v 0 -3808 0
v -2048 -3808 0
v -2048 -3680 0
v 0 -3680 0
v -1024 -3808 0
v -3072 -3808 0
v -3072 -3680 0
v -1024 -3680 0

# Texture cooridinates (Count = 4)
vt 0 0
vt 1 0
vt 1 1
vt 0 1

# Normal
vn 0 0 -1

# Mesh description
g mapa1.1_mesh_0006

# Faces
f 1/1/1 2/2/1 3/3/1 4/4/1
f 5/1/1 6/2/1 7/3/1 8/4/1
f 9/1/1 10/2/1 11/3/1 12/4/1

