# Tiled2Unity generated file. Do not modify by hand.
# Wavefront file for 'mapa1.1_mesh_0046.obj'

# Vertices (Count = 52)
v -1600 -1920 0
v -1632 -1920 0
v -1632 -1888 0
v -1600 -1888 0
v -608 -1952 0
v -640 -1952 0
v -640 -1920 0
v -608 -1920 0
v -1056 -2048 0
v -1088 -2048 0
v -1088 -2016 0
v -1056 -2016 0
v -736 -2080 0
v -768 -2080 0
v -768 -2048 0
v -736 -2048 0
v -1440 -2080 0
v -1472 -2080 0
v -1472 -2048 0
v -1440 -2048 0
v -544 -2272 0
v -576 -2272 0
v -576 -2240 0
v -544 -2240 0
v -352 -2496 0
v -384 -2496 0
v -384 -2464 0
v -352 -2464 0
v -1664 -2496 0
v -1696 -2496 0
v -1696 -2464 0
v -1664 -2464 0
v -1280 -2528 0
v -1312 -2528 0
v -1312 -2496 0
v -1280 -2496 0
v -704 -2720 0
v -736 -2720 0
v -736 -2688 0
v -704 -2688 0
v -1280 -2976 0
v -1312 -2976 0
v -1312 -2944 0
v -1280 -2944 0
v -928 -3008 0
v -960 -3008 0
v -960 -2976 0
v -928 -2976 0
v -992 -3360 0
v -1024 -3360 0
v -1024 -3328 0
v -992 -3328 0

# Texture cooridinates (Count = 4)
vt 0 0
vt 1 0
vt 1 1
vt 0 1

# Normal
vn 0 0 -1

# Mesh description
g mapa1.1_mesh_0046

# Faces
f 1/1/1 2/2/1 3/3/1 4/4/1
f 5/4/1 6/3/1 7/2/1 8/1/1
f 9/1/1 10/2/1 11/3/1 12/4/1
f 13/2/1 14/3/1 15/4/1 16/1/1
f 17/4/1 18/1/1 19/2/1 20/3/1
f 21/3/1 22/2/1 23/1/1 24/4/1
f 25/4/1 26/1/1 27/2/1 28/3/1
f 29/1/1 30/4/1 31/3/1 32/2/1
f 33/4/1 34/1/1 35/2/1 36/3/1
f 37/3/1 38/2/1 39/1/1 40/4/1
f 41/1/1 42/2/1 43/3/1 44/4/1
f 45/4/1 46/3/1 47/2/1 48/1/1
f 49/4/1 50/1/1 51/2/1 52/3/1

