# Tiled2Unity generated file. Do not modify by hand.
# Wavefront file for 'mapa1.1_mesh_0058.obj'

# Vertices (Count = 64)
v -96 -2400 0
v -128 -2400 0
v -128 -2368 0
v -96 -2368 0
v -1920 -2400 0
v -1952 -2400 0
v -1952 -2368 0
v -1920 -2368 0
v -128 -2496 0
v -160 -2496 0
v -160 -2464 0
v -128 -2464 0
v -960 -2496 0
v -992 -2496 0
v -992 -2464 0
v -960 -2464 0
v -1152 -2496 0
v -1184 -2496 0
v -1184 -2464 0
v -1152 -2464 0
v -1888 -2496 0
v -1920 -2496 0
v -1920 -2464 0
v -1888 -2464 0
v -864 -2816 0
v -896 -2816 0
v -896 -2784 0
v -864 -2784 0
v -1152 -2816 0
v -1184 -2816 0
v -1184 -2784 0
v -1152 -2784 0
v -960 -2848 0
v -992 -2848 0
v -992 -2816 0
v -960 -2816 0
v -1056 -2848 0
v -1088 -2848 0
v -1088 -2816 0
v -1056 -2816 0
v -416 -2976 0
v -448 -2976 0
v -448 -2944 0
v -416 -2944 0
v -1600 -2976 0
v -1632 -2976 0
v -1632 -2944 0
v -1600 -2944 0
v -320 -3008 0
v -352 -3008 0
v -352 -2976 0
v -320 -2976 0
v -1696 -3008 0
v -1728 -3008 0
v -1728 -2976 0
v -1696 -2976 0
v -608 -3104 0
v -640 -3104 0
v -640 -3072 0
v -608 -3072 0
v -512 -3136 0
v -544 -3136 0
v -544 -3104 0
v -512 -3104 0

# Texture cooridinates (Count = 4)
vt 0 0
vt 1 0
vt 1 1
vt 0 1

# Normal
vn 0 0 -1

# Mesh description
g mapa1.1_mesh_0058

# Faces
f 1/1/1 2/2/1 3/3/1 4/4/1
f 5/2/1 6/1/1 7/4/1 8/3/1
f 9/3/1 10/4/1 11/1/1 12/2/1
f 13/2/1 14/3/1 15/4/1 16/1/1
f 17/2/1 18/3/1 19/4/1 20/1/1
f 21/4/1 22/3/1 23/2/1 24/1/1
f 25/3/1 26/2/1 27/1/1 28/4/1
f 29/2/1 30/3/1 31/4/1 32/1/1
f 33/1/1 34/4/1 35/3/1 36/2/1
f 37/4/1 38/1/1 39/2/1 40/3/1
f 41/2/1 42/3/1 43/4/1 44/1/1
f 45/3/1 46/2/1 47/1/1 48/4/1
f 49/4/1 50/1/1 51/2/1 52/3/1
f 53/1/1 54/4/1 55/3/1 56/2/1
f 57/2/1 58/3/1 59/4/1 60/1/1
f 61/4/1 62/1/1 63/2/1 64/3/1

