# Tiled2Unity generated file. Do not modify by hand.
# Wavefront file for 'mapa1.1_mesh_0072.obj'

# Vertices (Count = 12)
v -256 -2880 0
v -288 -2880 0
v -288 -2848 0
v -256 -2848 0
v -1408 -3360 0
v -1440 -3360 0
v -1440 -3328 0
v -1408 -3328 0
v -1088 -3456 0
v -1120 -3456 0
v -1120 -3424 0
v -1088 -3424 0

# Texture cooridinates (Count = 4)
vt 1 0
vt 0 0
vt 0 1
vt 1 1

# Normal
vn 0 0 -1

# Mesh description
g mapa1.1_mesh_0072

# Faces
f 1/1/1 2/2/1 3/3/1 4/4/1
f 5/3/1 6/2/1 7/1/1 8/4/1
f 9/2/1 10/1/1 11/4/1 12/3/1

