# Tiled2Unity generated file. Do not modify by hand.
# Wavefront file for 'mapa1.1_mesh_0055.obj'

# Vertices (Count = 20)
v -1248 -2304 0
v -1280 -2304 0
v -1280 -2272 0
v -1248 -2272 0
v -800 -2336 0
v -832 -2336 0
v -832 -2304 0
v -800 -2304 0
v -896 -2816 0
v -928 -2816 0
v -928 -2784 0
v -896 -2784 0
v -544 -3104 0
v -576 -3104 0
v -576 -3072 0
v -544 -3072 0
v -1472 -3136 0
v -1504 -3136 0
v -1504 -3104 0
v -1472 -3104 0

# Texture cooridinates (Count = 4)
vt 0 0
vt 1 0
vt 1 1
vt 0 1

# Normal
vn 0 0 -1

# Mesh description
g mapa1.1_mesh_0055

# Faces
f 1/1/1 2/2/1 3/3/1 4/4/1
f 5/4/1 6/3/1 7/2/1 8/1/1
f 9/1/1 10/2/1 11/3/1 12/4/1
f 13/1/1 14/2/1 15/3/1 16/4/1
f 17/4/1 18/3/1 19/2/1 20/1/1

