# Tiled2Unity generated file. Do not modify by hand.
# Wavefront file for 'mapa1.1_mesh_0063.obj'

# Vertices (Count = 80)
v -128 -2432 0
v -160 -2432 0
v -160 -2400 0
v -128 -2400 0
v -1888 -2432 0
v -1920 -2432 0
v -1920 -2400 0
v -1888 -2400 0
v -96 -2464 0
v -128 -2464 0
v -128 -2432 0
v -96 -2432 0
v -1920 -2464 0
v -1952 -2464 0
v -1952 -2432 0
v -1920 -2432 0
v -896 -2496 0
v -928 -2496 0
v -928 -2464 0
v -896 -2464 0
v -1120 -2496 0
v -1152 -2496 0
v -1152 -2464 0
v -1120 -2464 0
v -896 -2528 0
v -928 -2528 0
v -928 -2496 0
v -896 -2496 0
v -1088 -2528 0
v -1120 -2528 0
v -1120 -2496 0
v -1088 -2496 0
v -352 -2688 0
v -384 -2688 0
v -384 -2656 0
v -352 -2656 0
v -1632 -2688 0
v -1664 -2688 0
v -1664 -2656 0
v -1632 -2656 0
v -352 -2720 0
v -384 -2720 0
v -384 -2688 0
v -352 -2688 0
v -1632 -2720 0
v -1664 -2720 0
v -1664 -2688 0
v -1632 -2688 0
v -384 -2784 0
v -416 -2784 0
v -416 -2752 0
v -384 -2752 0
v -1664 -2784 0
v -1696 -2784 0
v -1696 -2752 0
v -1664 -2752 0
v -352 -2976 0
v -384 -2976 0
v -384 -2944 0
v -352 -2944 0
v -1664 -2976 0
v -1696 -2976 0
v -1696 -2944 0
v -1664 -2944 0
v -384 -3008 0
v -416 -3008 0
v -416 -2976 0
v -384 -2976 0
v -1632 -3008 0
v -1664 -3008 0
v -1664 -2976 0
v -1632 -2976 0
v -704 -3616 0
v -736 -3616 0
v -736 -3584 0
v -704 -3584 0
v -1312 -3616 0
v -1344 -3616 0
v -1344 -3584 0
v -1312 -3584 0

# Texture cooridinates (Count = 4)
vt 1 0
vt 1 1
vt 0 1
vt 0 0

# Normal
vn 0 0 -1

# Mesh description
g mapa1.1_mesh_0063

# Faces
f 1/1/1 2/2/1 3/3/1 4/4/1
f 5/2/1 6/1/1 7/4/1 8/3/1
f 9/1/1 10/2/1 11/3/1 12/4/1
f 13/2/1 14/1/1 15/4/1 16/3/1
f 17/4/1 18/1/1 19/2/1 20/3/1
f 21/4/1 22/1/1 23/2/1 24/3/1
f 25/4/1 26/1/1 27/2/1 28/3/1
f 29/4/1 30/1/1 31/2/1 32/3/1
f 33/4/1 34/1/1 35/2/1 36/3/1
f 37/4/1 38/1/1 39/2/1 40/3/1
f 41/4/1 42/1/1 43/2/1 44/3/1
f 45/4/1 46/1/1 47/2/1 48/3/1
f 49/4/1 50/1/1 51/2/1 52/3/1
f 53/4/1 54/1/1 55/2/1 56/3/1
f 57/4/1 58/1/1 59/2/1 60/3/1
f 61/3/1 62/2/1 63/1/1 64/4/1
f 65/4/1 66/1/1 67/2/1 68/3/1
f 69/3/1 70/2/1 71/1/1 72/4/1
f 73/4/1 74/1/1 75/2/1 76/3/1
f 77/4/1 78/1/1 79/2/1 80/3/1

