# Tiled2Unity generated file. Do not modify by hand.
# Wavefront file for 'mapa1.1_mesh_0084.obj'

# Vertices (Count = 104)
v -480 -1920 0
v -512 -1920 0
v -512 -1888 0
v -480 -1888 0
v -640 -1920 0
v -672 -1920 0
v -672 -1888 0
v -640 -1888 0
v -1440 -1920 0
v -1472 -1920 0
v -1472 -1888 0
v -1440 -1888 0
v -704 -2048 0
v -736 -2048 0
v -736 -2016 0
v -704 -2016 0
v -1024 -2048 0
v -1056 -2048 0
v -1056 -2016 0
v -1024 -2016 0
v -1120 -2144 0
v -1152 -2144 0
v -1152 -2112 0
v -1120 -2112 0
v -704 -2304 0
v -736 -2304 0
v -736 -2272 0
v -704 -2272 0
v -128 -2336 0
v -160 -2336 0
v -160 -2304 0
v -128 -2304 0
v -224 -2336 0
v -256 -2336 0
v -256 -2304 0
v -224 -2304 0
v -352 -2400 0
v -384 -2400 0
v -384 -2368 0
v -352 -2368 0
v -1632 -2400 0
v -1664 -2400 0
v -1664 -2368 0
v -1632 -2368 0
v -480 -2464 0
v -512 -2464 0
v -512 -2432 0
v -480 -2432 0
v -256 -2656 0
v -288 -2656 0
v -288 -2624 0
v -256 -2624 0
v -416 -2656 0
v -448 -2656 0
v -448 -2624 0
v -416 -2624 0
v -512 -2656 0
v -544 -2656 0
v -544 -2624 0
v -512 -2624 0
v -192 -2880 0
v -224 -2880 0
v -224 -2848 0
v -192 -2848 0
v -1856 -2880 0
v -1888 -2880 0
v -1888 -2848 0
v -1856 -2848 0
v -448 -2976 0
v -480 -2976 0
v -480 -2944 0
v -448 -2944 0
v -1120 -2976 0
v -1152 -2976 0
v -1152 -2944 0
v -1120 -2944 0
v -1536 -2976 0
v -1568 -2976 0
v -1568 -2944 0
v -1536 -2944 0
v -992 -3104 0
v -1024 -3104 0
v -1024 -3072 0
v -992 -3072 0
v -1728 -3104 0
v -1760 -3104 0
v -1760 -3072 0
v -1728 -3072 0
v -1600 -3264 0
v -1632 -3264 0
v -1632 -3232 0
v -1600 -3232 0
v -1248 -3360 0
v -1280 -3360 0
v -1280 -3328 0
v -1248 -3328 0
v -1472 -3360 0
v -1504 -3360 0
v -1504 -3328 0
v -1472 -3328 0
v -736 -3520 0
v -768 -3520 0
v -768 -3488 0
v -736 -3488 0

# Texture cooridinates (Count = 4)
vt 0 0
vt 1 0
vt 1 1
vt 0 1

# Normal
vn 0 0 -1

# Mesh description
g mapa1.1_mesh_0084

# Faces
f 1/1/1 2/2/1 3/3/1 4/4/1
f 5/1/1 6/2/1 7/3/1 8/4/1
f 9/1/1 10/2/1 11/3/1 12/4/1
f 13/1/1 14/2/1 15/3/1 16/4/1
f 17/1/1 18/2/1 19/3/1 20/4/1
f 21/1/1 22/2/1 23/3/1 24/4/1
f 25/1/1 26/2/1 27/3/1 28/4/1
f 29/1/1 30/2/1 31/3/1 32/4/1
f 33/1/1 34/2/1 35/3/1 36/4/1
f 37/1/1 38/2/1 39/3/1 40/4/1
f 41/1/1 42/2/1 43/3/1 44/4/1
f 45/1/1 46/2/1 47/3/1 48/4/1
f 49/1/1 50/2/1 51/3/1 52/4/1
f 53/1/1 54/2/1 55/3/1 56/4/1
f 57/1/1 58/2/1 59/3/1 60/4/1
f 61/1/1 62/2/1 63/3/1 64/4/1
f 65/1/1 66/2/1 67/3/1 68/4/1
f 69/1/1 70/2/1 71/3/1 72/4/1
f 73/1/1 74/2/1 75/3/1 76/4/1
f 77/1/1 78/2/1 79/3/1 80/4/1
f 81/1/1 82/2/1 83/3/1 84/4/1
f 85/1/1 86/2/1 87/3/1 88/4/1
f 89/1/1 90/2/1 91/3/1 92/4/1
f 93/1/1 94/2/1 95/3/1 96/4/1
f 97/1/1 98/2/1 99/3/1 100/4/1
f 101/1/1 102/2/1 103/3/1 104/4/1

