# Tiled2Unity generated file. Do not modify by hand.
# Wavefront file for 'mapa1.1_mesh_0102.obj'

# Vertices (Count = 32)
v -800 -2272 0
v -832 -2272 0
v -832 -2240 0
v -800 -2240 0
v -1120 -2784 0
v -1152 -2784 0
v -1152 -2752 0
v -1120 -2752 0
v -1632 -2944 0
v -1664 -2944 0
v -1664 -2912 0
v -1632 -2912 0
v -1408 -3328 0
v -1440 -3328 0
v -1440 -3296 0
v -1408 -3296 0
v -704 -3584 0
v -736 -3584 0
v -736 -3552 0
v -704 -3552 0
v -800 -3584 0
v -832 -3584 0
v -832 -3552 0
v -800 -3552 0
v -960 -3584 0
v -992 -3584 0
v -992 -3552 0
v -960 -3552 0
v -1120 -3584 0
v -1152 -3584 0
v -1152 -3552 0
v -1120 -3552 0

# Texture cooridinates (Count = 4)
vt 0 0
vt 1 0
vt 1 1
vt 0 1

# Normal
vn 0 0 -1

# Mesh description
g mapa1.1_mesh_0102

# Faces
f 1/1/1 2/2/1 3/3/1 4/4/1
f 5/1/1 6/2/1 7/3/1 8/4/1
f 9/1/1 10/2/1 11/3/1 12/4/1
f 13/1/1 14/2/1 15/3/1 16/4/1
f 17/1/1 18/2/1 19/3/1 20/4/1
f 21/1/1 22/2/1 23/3/1 24/4/1
f 25/1/1 26/2/1 27/3/1 28/4/1
f 29/1/1 30/2/1 31/3/1 32/4/1

