# Tiled2Unity generated file. Do not modify by hand.
# Wavefront file for 'mapa1.1_mesh_0082.obj'

# Vertices (Count = 96)
v -416 -1920 0
v -448 -1920 0
v -448 -1888 0
v -416 -1888 0
v -544 -1920 0
v -576 -1920 0
v -576 -1888 0
v -544 -1888 0
v -1536 -1920 0
v -1568 -1920 0
v -1568 -1888 0
v -1536 -1888 0
v -1632 -1920 0
v -1664 -1920 0
v -1664 -1888 0
v -1632 -1888 0
v -1184 -2048 0
v -1216 -2048 0
v -1216 -2016 0
v -1184 -2016 0
v -1216 -2304 0
v -1248 -2304 0
v -1248 -2272 0
v -1216 -2272 0
v -1344 -2304 0
v -1376 -2304 0
v -1376 -2272 0
v -1344 -2272 0
v -256 -2336 0
v -288 -2336 0
v -288 -2304 0
v -256 -2304 0
v -1408 -2464 0
v -1440 -2464 0
v -1440 -2432 0
v -1408 -2432 0
v -1568 -2464 0
v -1600 -2464 0
v -1600 -2432 0
v -1568 -2432 0
v -480 -2656 0
v -512 -2656 0
v -512 -2624 0
v -480 -2624 0
v -608 -2656 0
v -640 -2656 0
v -640 -2624 0
v -608 -2624 0
v -1120 -2816 0
v -1152 -2816 0
v -1152 -2784 0
v -1120 -2784 0
v -480 -2976 0
v -512 -2976 0
v -512 -2944 0
v -480 -2944 0
v -800 -2976 0
v -832 -2976 0
v -832 -2944 0
v -800 -2944 0
v -544 -3104 0
v -576 -3104 0
v -576 -3072 0
v -544 -3072 0
v -640 -3104 0
v -672 -3104 0
v -672 -3072 0
v -640 -3072 0
v -832 -3104 0
v -864 -3104 0
v -864 -3072 0
v -832 -3072 0
v -480 -3360 0
v -512 -3360 0
v -512 -3328 0
v -480 -3328 0
v -544 -3360 0
v -576 -3360 0
v -576 -3328 0
v -544 -3328 0
v -1408 -3360 0
v -1440 -3360 0
v -1440 -3328 0
v -1408 -3328 0
v -1536 -3360 0
v -1568 -3360 0
v -1568 -3328 0
v -1536 -3328 0
v -992 -3456 0
v -1024 -3456 0
v -1024 -3424 0
v -992 -3424 0
v -1088 -3456 0
v -1120 -3456 0
v -1120 -3424 0
v -1088 -3424 0

# Texture cooridinates (Count = 4)
vt 0 0
vt 1 0
vt 1 1
vt 0 1

# Normal
vn 0 0 -1

# Mesh description
g mapa1.1_mesh_0082

# Faces
f 1/1/1 2/2/1 3/3/1 4/4/1
f 5/1/1 6/2/1 7/3/1 8/4/1
f 9/1/1 10/2/1 11/3/1 12/4/1
f 13/1/1 14/2/1 15/3/1 16/4/1
f 17/1/1 18/2/1 19/3/1 20/4/1
f 21/1/1 22/2/1 23/3/1 24/4/1
f 25/1/1 26/2/1 27/3/1 28/4/1
f 29/1/1 30/2/1 31/3/1 32/4/1
f 33/1/1 34/2/1 35/3/1 36/4/1
f 37/1/1 38/2/1 39/3/1 40/4/1
f 41/1/1 42/2/1 43/3/1 44/4/1
f 45/1/1 46/2/1 47/3/1 48/4/1
f 49/1/1 50/2/1 51/3/1 52/4/1
f 53/1/1 54/2/1 55/3/1 56/4/1
f 57/1/1 58/2/1 59/3/1 60/4/1
f 61/1/1 62/2/1 63/3/1 64/4/1
f 65/1/1 66/2/1 67/3/1 68/4/1
f 69/1/1 70/2/1 71/3/1 72/4/1
f 73/1/1 74/2/1 75/3/1 76/4/1
f 77/1/1 78/2/1 79/3/1 80/4/1
f 81/1/1 82/2/1 83/3/1 84/4/1
f 85/1/1 86/2/1 87/3/1 88/4/1
f 89/1/1 90/2/1 91/3/1 92/4/1
f 93/1/1 94/2/1 95/3/1 96/4/1

