# Tiled2Unity generated file. Do not modify by hand.
# Wavefront file for 'mapa1.1_mesh_0085.obj'

# Vertices (Count = 64)
v -512 -1920 0
v -544 -1920 0
v -544 -1888 0
v -512 -1888 0
v -576 -1920 0
v -608 -1920 0
v -608 -1888 0
v -576 -1888 0
v -1408 -1920 0
v -1440 -1920 0
v -1440 -1888 0
v -1408 -1888 0
v -1504 -1920 0
v -1536 -1920 0
v -1536 -1888 0
v -1504 -1888 0
v -832 -2048 0
v -864 -2048 0
v -864 -2016 0
v -832 -2016 0
v -1312 -2048 0
v -1344 -2048 0
v -1344 -2016 0
v -1312 -2016 0
v -1184 -2208 0
v -1216 -2208 0
v -1216 -2176 0
v -1184 -2176 0
v -896 -2304 0
v -928 -2304 0
v -928 -2272 0
v -896 -2272 0
v -160 -2336 0
v -192 -2336 0
v -192 -2304 0
v -160 -2304 0
v -1408 -2656 0
v -1440 -2656 0
v -1440 -2624 0
v -1408 -2624 0
v -928 -2816 0
v -960 -2816 0
v -960 -2784 0
v -928 -2784 0
v -1088 -2816 0
v -1120 -2816 0
v -1120 -2784 0
v -1088 -2784 0
v -1728 -2880 0
v -1760 -2880 0
v -1760 -2848 0
v -1728 -2848 0
v -704 -2976 0
v -736 -2976 0
v -736 -2944 0
v -704 -2944 0
v -608 -3360 0
v -640 -3360 0
v -640 -3328 0
v -608 -3328 0
v -1056 -3456 0
v -1088 -3456 0
v -1088 -3424 0
v -1056 -3424 0

# Texture cooridinates (Count = 4)
vt 0 0
vt 1 0
vt 1 1
vt 0 1

# Normal
vn 0 0 -1

# Mesh description
g mapa1.1_mesh_0085

# Faces
f 1/1/1 2/2/1 3/3/1 4/4/1
f 5/1/1 6/2/1 7/3/1 8/4/1
f 9/1/1 10/2/1 11/3/1 12/4/1
f 13/1/1 14/2/1 15/3/1 16/4/1
f 17/1/1 18/2/1 19/3/1 20/4/1
f 21/1/1 22/2/1 23/3/1 24/4/1
f 25/1/1 26/2/1 27/3/1 28/4/1
f 29/1/1 30/2/1 31/3/1 32/4/1
f 33/1/1 34/2/1 35/3/1 36/4/1
f 37/1/1 38/2/1 39/3/1 40/4/1
f 41/1/1 42/2/1 43/3/1 44/4/1
f 45/1/1 46/2/1 47/3/1 48/4/1
f 49/1/1 50/2/1 51/3/1 52/4/1
f 53/1/1 54/2/1 55/3/1 56/4/1
f 57/1/1 58/2/1 59/3/1 60/4/1
f 61/1/1 62/2/1 63/3/1 64/4/1

