# Tiled2Unity generated file. Do not modify by hand.
# Wavefront file for 'mapa1.1_mesh_0040.obj'

# Vertices (Count = 168)
v -480 -1920 0
v -512 -1920 0
v -512 -1888 0
v -480 -1888 0
v -1536 -1920 0
v -1568 -1920 0
v -1568 -1888 0
v -1536 -1888 0
v -544 -1952 0
v -576 -1952 0
v -576 -1920 0
v -544 -1920 0
v -1472 -1952 0
v -1504 -1952 0
v -1504 -1920 0
v -1472 -1920 0
v -1056 -2080 0
v -1088 -2080 0
v -1088 -2048 0
v -1056 -2048 0
v -704 -2112 0
v -736 -2112 0
v -736 -2080 0
v -704 -2080 0
v -1280 -2112 0
v -1312 -2112 0
v -1312 -2080 0
v -1280 -2080 0
v -384 -2144 0
v -416 -2144 0
v -416 -2112 0
v -384 -2112 0
v -576 -2144 0
v -608 -2144 0
v -608 -2112 0
v -576 -2112 0
v -1440 -2144 0
v -1472 -2144 0
v -1472 -2112 0
v -1440 -2112 0
v -1600 -2144 0
v -1632 -2144 0
v -1632 -2112 0
v -1600 -2112 0
v -736 -2176 0
v -768 -2176 0
v -768 -2144 0
v -736 -2144 0
v -1280 -2176 0
v -1312 -2176 0
v -1312 -2144 0
v -1280 -2144 0
v -544 -2208 0
v -576 -2208 0
v -576 -2176 0
v -544 -2176 0
v -1472 -2208 0
v -1504 -2208 0
v -1504 -2176 0
v -1472 -2176 0
v -224 -2336 0
v -256 -2336 0
v -256 -2304 0
v -224 -2304 0
v -1888 -2368 0
v -1920 -2368 0
v -1920 -2336 0
v -1888 -2336 0
v -352 -2464 0
v -384 -2464 0
v -384 -2432 0
v -352 -2432 0
v -1664 -2464 0
v -1696 -2464 0
v -1696 -2432 0
v -1664 -2432 0
v -1536 -2496 0
v -1568 -2496 0
v -1568 -2464 0
v -1536 -2464 0
v -352 -2528 0
v -384 -2528 0
v -384 -2496 0
v -352 -2496 0
v -1664 -2528 0
v -1696 -2528 0
v -1696 -2496 0
v -1664 -2496 0
v -736 -2592 0
v -768 -2592 0
v -768 -2560 0
v -736 -2560 0
v -1280 -2592 0
v -1312 -2592 0
v -1312 -2560 0
v -1280 -2560 0
v -480 -2656 0
v -512 -2656 0
v -512 -2624 0
v -480 -2624 0
v -704 -2656 0
v -736 -2656 0
v -736 -2624 0
v -704 -2624 0
v -1312 -2656 0
v -1344 -2656 0
v -1344 -2624 0
v -1312 -2624 0
v -1536 -2656 0
v -1568 -2656 0
v -1568 -2624 0
v -1536 -2624 0
v -800 -2976 0
v -832 -2976 0
v -832 -2944 0
v -800 -2944 0
v -1216 -2976 0
v -1248 -2976 0
v -1248 -2944 0
v -1216 -2944 0
v -864 -3008 0
v -896 -3008 0
v -896 -2976 0
v -864 -2976 0
v -1152 -3008 0
v -1184 -3008 0
v -1184 -2976 0
v -1152 -2976 0
v -640 -3136 0
v -672 -3136 0
v -672 -3104 0
v -640 -3104 0
v -1344 -3136 0
v -1376 -3136 0
v -1376 -3104 0
v -1344 -3104 0
v -1344 -3200 0
v -1376 -3200 0
v -1376 -3168 0
v -1344 -3168 0
v -1376 -3200 0
v -1408 -3200 0
v -1408 -3168 0
v -1376 -3168 0
v -992 -3328 0
v -1024 -3328 0
v -1024 -3296 0
v -992 -3296 0
v -448 -3392 0
v -480 -3392 0
v -480 -3360 0
v -448 -3360 0
v -992 -3392 0
v -1024 -3392 0
v -1024 -3360 0
v -992 -3360 0
v -1600 -3392 0
v -1632 -3392 0
v -1632 -3360 0
v -1600 -3360 0
v -1568 -3456 0
v -1600 -3456 0
v -1600 -3424 0
v -1568 -3424 0
v -1600 -3456 0
v -1632 -3456 0
v -1632 -3424 0
v -1600 -3424 0

# Texture cooridinates (Count = 4)
vt 0 0
vt 1 0
vt 1 1
vt 0 1

# Normal
vn 0 0 -1

# Mesh description
g mapa1.1_mesh_0040

# Faces
f 1/1/1 2/2/1 3/3/1 4/4/1
f 5/1/1 6/2/1 7/3/1 8/4/1
f 9/4/1 10/3/1 11/2/1 12/1/1
f 13/4/1 14/3/1 15/2/1 16/1/1
f 17/4/1 18/3/1 19/2/1 20/1/1
f 21/4/1 22/1/1 23/2/1 24/3/1
f 25/4/1 26/1/1 27/2/1 28/3/1
f 29/4/1 30/1/1 31/2/1 32/3/1
f 33/2/1 34/3/1 35/4/1 36/1/1
f 37/4/1 38/1/1 39/2/1 40/3/1
f 41/4/1 42/1/1 43/2/1 44/3/1
f 45/2/1 46/3/1 47/4/1 48/1/1
f 49/4/1 50/1/1 51/2/1 52/3/1
f 53/3/1 54/2/1 55/1/1 56/4/1
f 57/1/1 58/4/1 59/3/1 60/2/1
f 61/2/1 62/1/1 63/4/1 64/3/1
f 65/3/1 66/4/1 67/1/1 68/2/1
f 69/4/1 70/1/1 71/2/1 72/3/1
f 73/1/1 74/4/1 75/3/1 76/2/1
f 77/4/1 78/3/1 79/2/1 80/1/1
f 81/4/1 82/1/1 83/2/1 84/3/1
f 85/1/1 86/4/1 87/3/1 88/2/1
f 89/2/1 90/3/1 91/4/1 92/1/1
f 93/4/1 94/1/1 95/2/1 96/3/1
f 97/2/1 98/1/1 99/4/1 100/3/1
f 101/3/1 102/2/1 103/1/1 104/4/1
f 105/1/1 106/4/1 107/3/1 108/2/1
f 109/1/1 110/2/1 111/3/1 112/4/1
f 113/1/1 114/2/1 115/3/1 116/4/1
f 117/1/1 118/2/1 119/3/1 120/4/1
f 121/4/1 122/3/1 123/2/1 124/1/1
f 125/4/1 126/3/1 127/2/1 128/1/1
f 129/3/1 130/2/1 131/1/1 132/4/1
f 133/4/1 134/1/1 135/2/1 136/3/1
f 137/3/1 138/2/1 139/1/1 140/4/1
f 141/1/1 142/4/1 143/3/1 144/2/1
f 145/4/1 146/1/1 147/2/1 148/3/1
f 149/2/1 150/3/1 151/4/1 152/1/1
f 153/4/1 154/1/1 155/2/1 156/3/1
f 157/1/1 158/4/1 159/3/1 160/2/1
f 161/4/1 162/1/1 163/2/1 164/3/1
f 165/2/1 166/3/1 167/4/1 168/1/1

