# Tiled2Unity generated file. Do not modify by hand.
# Wavefront file for 'mapa1.1_mesh_0049.obj'

# Vertices (Count = 52)
v -416 -2080 0
v -448 -2080 0
v -448 -2048 0
v -416 -2048 0
v -704 -2080 0
v -736 -2080 0
v -736 -2048 0
v -704 -2048 0
v -1312 -2080 0
v -1344 -2080 0
v -1344 -2048 0
v -1312 -2048 0
v -736 -2112 0
v -768 -2112 0
v -768 -2080 0
v -736 -2080 0
v -1280 -2144 0
v -1312 -2144 0
v -1312 -2112 0
v -1280 -2112 0
v -416 -2176 0
v -448 -2176 0
v -448 -2144 0
v -416 -2144 0
v -384 -2464 0
v -416 -2464 0
v -416 -2432 0
v -384 -2432 0
v -1632 -2464 0
v -1664 -2464 0
v -1664 -2432 0
v -1632 -2432 0
v -1376 -3168 0
v -1408 -3168 0
v -1408 -3136 0
v -1376 -3136 0
v -1344 -3232 0
v -1376 -3232 0
v -1376 -3200 0
v -1344 -3200 0
v -1024 -3328 0
v -1056 -3328 0
v -1056 -3296 0
v -1024 -3296 0
v -1568 -3424 0
v -1600 -3424 0
v -1600 -3392 0
v -1568 -3392 0
v -1600 -3488 0
v -1632 -3488 0
v -1632 -3456 0
v -1600 -3456 0

# Texture cooridinates (Count = 4)
vt 1 0
vt 1 1
vt 0 1
vt 0 0

# Normal
vn 0 0 -1

# Mesh description
g mapa1.1_mesh_0049

# Faces
f 1/1/1 2/2/1 3/3/1 4/4/1
f 5/3/1 6/4/1 7/1/1 8/2/1
f 9/1/1 10/2/1 11/3/1 12/4/1
f 13/1/1 14/2/1 15/3/1 16/4/1
f 17/3/1 18/4/1 19/1/1 20/2/1
f 21/1/1 22/2/1 23/3/1 24/4/1
f 25/1/1 26/2/1 27/3/1 28/4/1
f 29/2/1 30/1/1 31/4/1 32/3/1
f 33/4/1 34/3/1 35/2/1 36/1/1
f 37/2/1 38/1/1 39/4/1 40/3/1
f 41/1/1 42/2/1 43/3/1 44/4/1
f 45/3/1 46/4/1 47/1/1 48/2/1
f 49/1/1 50/2/1 51/3/1 52/4/1

