# Tiled2Unity generated file. Do not modify by hand.
# Wavefront file for 'mapa1.1_mesh_0037.obj'

# Vertices (Count = 128)
v -384 -1920 0
v -416 -1920 0
v -416 -1888 0
v -384 -1888 0
v -1632 -1952 0
v -1664 -1952 0
v -1664 -1920 0
v -1632 -1920 0
v -704 -2048 0
v -736 -2048 0
v -736 -2016 0
v -704 -2016 0
v -1088 -2048 0
v -1120 -2048 0
v -1120 -2016 0
v -1088 -2016 0
v -1312 -2048 0
v -1344 -2048 0
v -1344 -2016 0
v -1312 -2016 0
v -1472 -2048 0
v -1504 -2048 0
v -1504 -2016 0
v -1472 -2016 0
v -1600 -2048 0
v -1632 -2048 0
v -1632 -2016 0
v -1600 -2016 0
v -1312 -2208 0
v -1344 -2208 0
v -1344 -2176 0
v -1312 -2176 0
v -1632 -2208 0
v -1664 -2208 0
v -1664 -2176 0
v -1632 -2176 0
v -576 -2304 0
v -608 -2304 0
v -608 -2272 0
v -576 -2272 0
v -672 -2304 0
v -704 -2304 0
v -704 -2272 0
v -672 -2272 0
v -704 -2304 0
v -736 -2304 0
v -736 -2272 0
v -704 -2272 0
v -896 -2304 0
v -928 -2304 0
v -928 -2272 0
v -896 -2272 0
v -1344 -2304 0
v -1376 -2304 0
v -1376 -2272 0
v -1344 -2272 0
v -896 -2336 0
v -928 -2336 0
v -928 -2304 0
v -896 -2304 0
v -1120 -2336 0
v -1152 -2336 0
v -1152 -2304 0
v -1120 -2304 0
v -1152 -2336 0
v -1184 -2336 0
v -1184 -2304 0
v -1152 -2304 0
v -1344 -2336 0
v -1376 -2336 0
v -1376 -2304 0
v -1344 -2304 0
v -352 -2400 0
v -384 -2400 0
v -384 -2368 0
v -352 -2368 0
v -1664 -2400 0
v -1696 -2400 0
v -1696 -2368 0
v -1664 -2368 0
v -1504 -2464 0
v -1536 -2464 0
v -1536 -2432 0
v -1504 -2432 0
v -1312 -2496 0
v -1344 -2496 0
v -1344 -2464 0
v -1312 -2464 0
v -512 -2688 0
v -544 -2688 0
v -544 -2656 0
v -512 -2656 0
v -1504 -2688 0
v -1536 -2688 0
v -1536 -2656 0
v -1504 -2656 0
v -736 -2752 0
v -768 -2752 0
v -768 -2720 0
v -736 -2720 0
v -704 -2976 0
v -736 -2976 0
v -736 -2944 0
v -704 -2944 0
v -1312 -3008 0
v -1344 -3008 0
v -1344 -2976 0
v -1312 -2976 0
v -448 -3104 0
v -480 -3104 0
v -480 -3072 0
v -448 -3072 0
v -1536 -3104 0
v -1568 -3104 0
v -1568 -3072 0
v -1536 -3072 0
v -992 -3264 0
v -1024 -3264 0
v -1024 -3232 0
v -992 -3232 0
v -768 -3360 0
v -800 -3360 0
v -800 -3328 0
v -768 -3328 0
v -1216 -3360 0
v -1248 -3360 0
v -1248 -3328 0
v -1216 -3328 0

# Texture cooridinates (Count = 4)
vt 0 0
vt 1 0
vt 1 1
vt 0 1

# Normal
vn 0 0 -1

# Mesh description
g mapa1.1_mesh_0037

# Faces
f 1/1/1 2/2/1 3/3/1 4/4/1
f 5/3/1 6/4/1 7/1/1 8/2/1
f 9/1/1 10/2/1 11/3/1 12/4/1
f 13/2/1 14/3/1 15/4/1 16/1/1
f 17/2/1 18/3/1 19/4/1 20/1/1
f 21/2/1 22/3/1 23/4/1 24/1/1
f 25/1/1 26/2/1 27/3/1 28/4/1
f 29/3/1 30/4/1 31/1/1 32/2/1
f 33/3/1 34/4/1 35/1/1 36/2/1
f 37/1/1 38/4/1 39/3/1 40/2/1
f 41/1/1 42/2/1 43/3/1 44/4/1
f 45/2/1 46/3/1 47/4/1 48/1/1
f 49/2/1 50/3/1 51/4/1 52/1/1
f 53/2/1 54/1/1 55/4/1 56/3/1
f 57/3/1 58/4/1 59/1/1 60/2/1
f 61/4/1 62/3/1 63/2/1 64/1/1
f 65/1/1 66/4/1 67/3/1 68/2/1
f 69/1/1 70/4/1 71/3/1 72/2/1
f 73/1/1 74/2/1 75/3/1 76/4/1
f 77/2/1 78/1/1 79/4/1 80/3/1
f 81/1/1 82/2/1 83/3/1 84/4/1
f 85/2/1 86/3/1 87/4/1 88/1/1
f 89/3/1 90/4/1 91/1/1 92/2/1
f 93/4/1 94/3/1 95/2/1 96/1/1
f 97/1/1 98/4/1 99/3/1 100/2/1
f 101/1/1 102/2/1 103/3/1 104/4/1
f 105/3/1 106/4/1 107/1/1 108/2/1
f 109/1/1 110/2/1 111/3/1 112/4/1
f 113/1/1 114/2/1 115/3/1 116/4/1
f 117/1/1 118/2/1 119/3/1 120/4/1
f 121/1/1 122/2/1 123/3/1 124/4/1
f 125/3/1 126/2/1 127/1/1 128/4/1

