# Tiled2Unity generated file. Do not modify by hand.
# Wavefront file for 'mapa1.1_mesh_0095.obj'

# Vertices (Count = 12)
v -1120 -2688 0
v -1152 -2688 0
v -1152 -2656 0
v -1120 -2656 0
v -480 -2784 0
v -512 -2784 0
v -512 -2752 0
v -480 -2752 0
v -1536 -2816 0
v -1568 -2816 0
v -1568 -2784 0
v -1536 -2784 0

# Texture cooridinates (Count = 4)
vt 0 0
vt 1 0
vt 1 1
vt 0 1

# Normal
vn 0 0 -1

# Mesh description
g mapa1.1_mesh_0095

# Faces
f 1/1/1 2/2/1 3/3/1 4/4/1
f 5/1/1 6/2/1 7/3/1 8/4/1
f 9/3/1 10/4/1 11/1/1 12/2/1

