# Tiled2Unity generated file. Do not modify by hand.
# Wavefront file for 'mapa1.1_mesh_0094.obj'

# Vertices (Count = 20)
v -864 -2688 0
v -896 -2688 0
v -896 -2656 0
v -864 -2656 0
v -896 -2688 0
v -928 -2688 0
v -928 -2656 0
v -896 -2656 0
v -1152 -2720 0
v -1184 -2720 0
v -1184 -2688 0
v -1152 -2688 0
v -1504 -2784 0
v -1536 -2784 0
v -1536 -2752 0
v -1504 -2752 0
v -512 -2816 0
v -544 -2816 0
v -544 -2784 0
v -512 -2784 0

# Texture cooridinates (Count = 4)
vt 0 0
vt 1 0
vt 1 1
vt 0 1

# Normal
vn 0 0 -1

# Mesh description
g mapa1.1_mesh_0094

# Faces
f 1/1/1 2/2/1 3/3/1 4/4/1
f 5/2/1 6/1/1 7/4/1 8/3/1
f 9/3/1 10/4/1 11/1/1 12/2/1
f 13/1/1 14/2/1 15/3/1 16/4/1
f 17/3/1 18/4/1 19/1/1 20/2/1

