# Tiled2Unity generated file. Do not modify by hand.
# Wavefront file for 'mapa1.1_mesh_0074.obj'

# Vertices (Count = 24)
v -256 -2912 0
v -288 -2912 0
v -288 -2880 0
v -256 -2880 0
v -1760 -2912 0
v -1792 -2912 0
v -1792 -2880 0
v -1760 -2880 0
v -288 -2944 0
v -320 -2944 0
v -320 -2912 0
v -288 -2912 0
v -1440 -3360 0
v -1472 -3360 0
v -1472 -3328 0
v -1440 -3328 0
v -960 -3456 0
v -992 -3456 0
v -992 -3424 0
v -960 -3424 0
v -1024 -3456 0
v -1056 -3456 0
v -1056 -3424 0
v -1024 -3424 0

# Texture cooridinates (Count = 4)
vt 0 1
vt 0 0
vt 1 0
vt 1 1

# Normal
vn 0 0 -1

# Mesh description
g mapa1.1_mesh_0074

# Faces
f 1/1/1 2/2/1 3/3/1 4/4/1
f 5/3/1 6/4/1 7/1/1 8/2/1
f 9/2/1 10/1/1 11/4/1 12/3/1
f 13/2/1 14/3/1 15/4/1 16/1/1
f 17/2/1 18/3/1 19/4/1 20/1/1
f 21/2/1 22/3/1 23/4/1 24/1/1

