# Tiled2Unity generated file. Do not modify by hand.
# Wavefront file for 'mapa1.1_mesh_0054.obj'

# Vertices (Count = 12)
v -1216 -2304 0
v -1248 -2304 0
v -1248 -2272 0
v -1216 -2272 0
v -768 -2336 0
v -800 -2336 0
v -800 -2304 0
v -768 -2304 0
v -896 -2848 0
v -928 -2848 0
v -928 -2816 0
v -896 -2816 0

# Texture cooridinates (Count = 4)
vt 0 0
vt 1 0
vt 1 1
vt 0 1

# Normal
vn 0 0 -1

# Mesh description
g mapa1.1_mesh_0054

# Faces
f 1/1/1 2/2/1 3/3/1 4/4/1
f 5/4/1 6/3/1 7/2/1 8/1/1
f 9/4/1 10/3/1 11/2/1 12/1/1

