# Tiled2Unity generated file. Do not modify by hand.
# Wavefront file for 'mapa1.1_mesh_0059.obj'

# Vertices (Count = 84)
v -128 -2400 0
v -160 -2400 0
v -160 -2368 0
v -128 -2368 0
v -1888 -2400 0
v -1920 -2400 0
v -1920 -2368 0
v -1888 -2368 0
v -864 -2496 0
v -896 -2496 0
v -896 -2464 0
v -864 -2464 0
v -1056 -2496 0
v -1088 -2496 0
v -1088 -2464 0
v -1056 -2464 0
v -864 -2528 0
v -896 -2528 0
v -896 -2496 0
v -864 -2496 0
v -960 -2528 0
v -992 -2528 0
v -992 -2496 0
v -960 -2496 0
v -1152 -2528 0
v -1184 -2528 0
v -1184 -2496 0
v -1152 -2496 0
v -352 -2656 0
v -384 -2656 0
v -384 -2624 0
v -352 -2624 0
v -384 -2656 0
v -416 -2656 0
v -416 -2624 0
v -384 -2624 0
v -1632 -2656 0
v -1664 -2656 0
v -1664 -2624 0
v -1632 -2624 0
v -1664 -2656 0
v -1696 -2656 0
v -1696 -2624 0
v -1664 -2624 0
v -384 -2816 0
v -416 -2816 0
v -416 -2784 0
v -384 -2784 0
v -960 -2816 0
v -992 -2816 0
v -992 -2784 0
v -960 -2784 0
v -1056 -2816 0
v -1088 -2816 0
v -1088 -2784 0
v -1056 -2784 0
v -1664 -2816 0
v -1696 -2816 0
v -1696 -2784 0
v -1664 -2784 0
v -320 -2976 0
v -352 -2976 0
v -352 -2944 0
v -320 -2944 0
v -1600 -3008 0
v -1632 -3008 0
v -1632 -2976 0
v -1600 -2976 0
v -512 -3104 0
v -544 -3104 0
v -544 -3072 0
v -512 -3072 0
v -1408 -3104 0
v -1440 -3104 0
v -1440 -3072 0
v -1408 -3072 0
v -1504 -3104 0
v -1536 -3104 0
v -1536 -3072 0
v -1504 -3072 0
v -1408 -3136 0
v -1440 -3136 0
v -1440 -3104 0
v -1408 -3104 0

# Texture cooridinates (Count = 4)
vt 1 0
vt 1 1
vt 0 1
vt 0 0

# Normal
vn 0 0 -1

# Mesh description
g mapa1.1_mesh_0059

# Faces
f 1/1/1 2/2/1 3/3/1 4/4/1
f 5/2/1 6/1/1 7/4/1 8/3/1
f 9/4/1 10/1/1 11/2/1 12/3/1
f 13/4/1 14/1/1 15/2/1 16/3/1
f 17/3/1 18/4/1 19/1/1 20/2/1
f 21/2/1 22/3/1 23/4/1 24/1/1
f 25/2/1 26/3/1 27/4/1 28/1/1
f 29/4/1 30/1/1 31/2/1 32/3/1
f 33/1/1 34/4/1 35/3/1 36/2/1
f 37/4/1 38/1/1 39/2/1 40/3/1
f 41/1/1 42/4/1 43/3/1 44/2/1
f 45/2/1 46/3/1 47/4/1 48/1/1
f 49/1/1 50/4/1 51/3/1 52/2/1
f 53/4/1 54/1/1 55/2/1 56/3/1
f 57/2/1 58/3/1 59/4/1 60/1/1
f 61/4/1 62/1/1 63/2/1 64/3/1
f 65/3/1 66/2/1 67/1/1 68/4/1
f 69/4/1 70/1/1 71/2/1 72/3/1
f 73/4/1 74/1/1 75/2/1 76/3/1
f 77/1/1 78/4/1 79/3/1 80/2/1
f 81/3/1 82/2/1 83/1/1 84/4/1

